<svg xmlns="http://www.w3.org/2000/svg">

    <symbol id="vector-top" viewBox="0 0 20 20" fill="none">
        <path d="M14.5726 16.0029C10.5755 19.1865 4.988 18.3056 2.02842 14.6542C-0.828088 11.129 -0.64944 6.04347 2.44943 2.82482C5.65137 -0.500594 10.6854 -0.944524 14.3346 1.78337C15.642 2.76051 16.6183 4.00364 17.2542 5.50838C17.8938 7.02186 18.0881 8.59654 17.8663 10.2205C17.6452 11.837 17 13.2775 15.9499 14.6217C16.0349 14.6773 16.1255 14.7173 16.1904 14.7822C17.3448 15.9311 18.4947 17.0843 19.6491 18.2331C19.9227 18.5054 20.0589 18.8225 19.9776 19.2047C19.8165 19.9651 18.9107 20.2586 18.3298 19.7366C18.0575 19.4925 17.807 19.2234 17.5484 18.9649C16.6002 18.0177 15.6526 17.0699 14.7044 16.1227C14.665 16.0853 14.6238 16.0503 14.5726 16.0029ZM15.9605 8.98677C15.9705 5.12689 12.8529 2.00627 8.98261 2.00065C5.12292 1.99503 2.00781 5.09068 1.99094 8.94806C1.97408 12.8173 5.08544 15.9467 8.96762 15.9648C12.8117 15.9829 15.9505 12.8504 15.9605 8.98677Z" fill="#3D3D3D"/>
    </symbol>

    <symbol id="shopping" viewBox="0 0 31 24" fill="none">
            <path d="M17.1567 20.25H9.89163C6.79003 20.25 4.26667 17.7267 4.26667 14.6251V8.85947C4.26667 5.9762 2.82958 3.30739 0.422521 1.72031C-0.00975775 1.43531 -0.129101 0.853876 0.155897 0.421598C0.440896 -0.0107278 1.02228 -0.130118 1.45465 0.154974C2.82874 1.06097 3.94351 2.2559 4.74067 3.63167C4.91293 3.82466 6.30202 5.29699 8.57919 5.29699H19.3748C22.3201 5.24191 24.6254 8.19769 23.8554 11.0406L22.6126 15.9939C21.9839 18.4998 19.7404 20.25 17.1567 20.25ZM5.90513 6.64234C6.06099 7.36238 6.14166 8.10483 6.14166 8.85947V14.6251C6.14166 16.6928 7.8239 18.375 9.89163 18.375H17.1567C18.8792 18.375 20.3748 17.2082 20.794 15.5376L22.0367 10.5844C22.4943 8.89509 21.1243 7.13931 19.3748 7.17198H8.57914C7.54926 7.17198 6.65283 6.94993 5.90513 6.64234ZM9.42289 22.8281C9.42289 22.1809 8.89822 21.6563 8.25102 21.6563C6.69609 21.7182 6.69745 23.9387 8.25102 24C8.89822 24 9.42289 23.4753 9.42289 22.8281ZM18.751 22.8281C18.751 22.1809 18.2263 21.6563 17.5791 21.6563C16.0242 21.7182 16.0255 23.9387 17.5791 24C18.2263 24 18.751 23.4753 18.751 22.8281ZM20.3123 9.98446C20.3123 9.46668 19.8925 9.04697 19.3748 9.04697H8.95414C7.71027 9.09647 7.71121 10.8729 8.95414 10.922H19.3748C19.8925 10.922 20.3123 10.5022 20.3123 9.98446Z" fill="#3D3D3D"/>
            <circle cx="23.001" cy="8" r="7" fill="#46A358" stroke="white" stroke-width="2"/>
            <path d="M25.121 8.83C25.121 7.58 24.101 6.62 22.951 6.62C22.841 6.62 22.751 6.63 22.661 6.65L24.251 4.4H23.001L21.351 6.73C21.121 7.06 20.951 7.31 20.841 7.49C20.731 7.67 20.641 7.87 20.561 8.1C20.491 8.32 20.451 8.56 20.451 8.82C20.421 10.12 21.531 11.13 22.781 11.11C24.041 11.11 25.121 10.12 25.121 8.83ZM24.071 8.83C24.071 9.2 23.941 9.52 23.691 9.77C23.441 10.02 23.141 10.14 22.781 10.14C22.411 10.14 22.111 10.02 21.861 9.77C21.611 9.52 21.491 9.2 21.491 8.83C21.491 8.46 21.611 8.15 21.861 7.9C22.111 7.65 22.411 7.52 22.781 7.52C23.141 7.52 23.441 7.65 23.691 7.9C23.941 8.15 24.071 8.46 24.071 8.83Z" fill="white"/>
    </symbol>

    <symbol id="logo-svg" viewBox="0 0 35 35" fill="none">
        <path d="M17.15 0C7.67748 0 0 7.67746 0 17.15C0 26.0201 6.73548 33.3175 15.3711 34.207C14.8496 29.9134 15.0436 26.4001 15.7067 23.5135C15.3347 21.7225 14.4898 19.0703 12.5734 17.1864C12.5734 17.1864 13.8348 19.0784 14.5181 21.6214C14.5181 21.6255 14.5221 21.6295 14.5221 21.6335C14.5949 21.9044 14.6596 22.1793 14.7162 22.4623C14.7283 22.527 14.7404 22.5917 14.7526 22.6604C14.8051 22.9515 14.8536 23.2426 14.886 23.5418C5.19513 22.3532 3.12921 13.6569 3.35561 10.3781C13.665 10.9482 15.7754 17.8292 16.0827 22.0985C19.4585 11.0412 30.1843 10.4024 31.0697 10.3781C31.4538 18.8763 25.1509 25.5026 17.6149 26.0807C17.6635 25.8503 17.7201 25.6198 17.7767 25.3934C17.7928 25.3247 17.813 25.26 17.8333 25.1913C17.8777 25.0296 17.9222 24.8679 17.9748 24.7061C17.995 24.6374 18.0192 24.5646 18.0394 24.4959C18.096 24.318 18.1567 24.1442 18.2173 23.9663C18.2335 23.9259 18.2456 23.8854 18.2618 23.845C18.3386 23.6348 18.4195 23.4326 18.5003 23.2305C18.5084 23.2143 18.5125 23.1941 18.5205 23.1779C18.5205 23.1779 18.5205 23.1779 18.5246 23.1779C20.4571 18.5043 24.0229 15.4439 24.0229 15.4439C17.0247 19.4868 15.8441 29.9983 15.6582 34.2231C16.1514 34.2676 16.6446 34.2999 17.15 34.2999C26.6225 34.2999 34.3 26.6225 34.3 17.15C34.3 7.67746 26.6225 0 17.15 0Z" fill="#46A358"/>
    </symbol>

    <symbol id="curved" viewBox="0 0 18 18" fill="none">
        <path d="M14.8126 8.79428H3.56258" stroke="white" stroke-width="1.5" stroke-linecap="round" stroke-linejoin="round"/>
        <path d="M10.2748 4.2759C10.2748 4.2759 14.8123 6.72165 14.8123 8.79315C14.8123 10.8662 10.2748 13.3127 10.2748 13.3127" stroke="white" stroke-width="1.5" stroke-linecap="round" stroke-linejoin="round"/>
    </symbol>

    <symbol id="arrow-down" viewBox="0 0 16 16" fill="none">
        <path d="M12.6666 5.66675L7.99992 10.3334L3.33325 5.66675" stroke="#3D3D3D" stroke-width="1.5" stroke-linecap="round" stroke-linejoin="round"/>
    </symbol>

    <symbol id="geo" viewBox="0 0 20 20" fill="none">
        <path fill-rule="evenodd" clip-rule="evenodd" d="M12.092 8.92543C12.092 7.77437 11.1593 6.84167 10.0082 6.84167C8.85799 6.84167 7.92529 7.77437 7.92529 8.92543C7.92529 10.0756 8.85799 11.0083 10.0082 11.0083C11.1593 11.0083 12.092 10.0756 12.092 8.92543Z" stroke="#46A358" stroke-width="1.5" stroke-linecap="round" stroke-linejoin="round"/>
        <path fill-rule="evenodd" clip-rule="evenodd" d="M9.99959 17.5C7.58457 17.5 3.75 13.2989 3.75 8.8322C3.75 5.33539 6.54758 2.5 9.99959 2.5C13.4516 2.5 16.25 5.33539 16.25 8.8322C16.25 13.2989 12.4154 17.5 9.99959 17.5Z" stroke="#46A358" stroke-width="1.5" stroke-linecap="round" stroke-linejoin="round"/>
    </symbol>

    <symbol id="mail" viewBox="0 0 20 20" fill="none">
        <path d="M14.621 7.51581C14.621 7.51581 11.946 10.7263 9.98943 10.7263C8.03371 10.7263 5.32861 7.51581 5.32861 7.51581" stroke="#46A358" stroke-width="1.5" stroke-linecap="round" stroke-linejoin="round"/>
        <path fill-rule="evenodd" clip-rule="evenodd" d="M2.04346 9.97397C2.04346 4.27556 4.02758 2.37665 9.97997 2.37665C15.9323 2.37665 17.9165 4.27556 17.9165 9.97397C17.9165 15.6716 15.9323 17.5713 9.97997 17.5713C4.02758 17.5713 2.04346 15.6716 2.04346 9.97397Z" stroke="#46A358" stroke-width="1.5" stroke-linecap="round" stroke-linejoin="round"/>
    </symbol>

    <symbol id="telephone" viewBox="0 0 20 20" fill="none">
        <path d="M11.9604 2.29175C15.0446 2.63425 17.4813 5.06758 17.8279 8.15175" stroke="#46A358" stroke-width="1.5" stroke-linecap="round" stroke-linejoin="round"/>
        <path d="M11.9604 5.24426C13.4363 5.53093 14.5896 6.6851 14.8771 8.16093" stroke="#46A358" stroke-width="1.5" stroke-linecap="round" stroke-linejoin="round"/>
        <path fill-rule="evenodd" clip-rule="evenodd" d="M6.41715 13.5825C0.668834 7.83352 1.48623 5.20096 2.0922 4.35263C2.17005 4.21552 4.08881 1.34323 6.14557 3.02839C11.2508 7.23288 4.78767 6.63843 9.07458 10.9261C13.3624 15.2128 12.767 8.74996 16.9717 13.8541C18.6569 15.9117 15.7845 17.8303 15.6483 17.9073C14.7999 18.5141 12.1664 19.3315 6.41715 13.5825Z" stroke="#46A358" stroke-width="1.5" stroke-linecap="round" stroke-linejoin="round"/>
    </symbol>

    <symbol id="hide-eye" viewBox="0 0 20 20" fill="none" >
        <path d="M5.35 14.7748C3.49166 13.5582 2.29166 11.7248 2.29166 10.1165C2.29166 7.38317 5.74166 4.03316 10 4.03316C11.7417 4.03316 13.3583 4.5915 14.6583 5.45816" stroke="#727272" stroke-width="1.5" stroke-linecap="round" stroke-linejoin="round"/>
        <path d="M16.5414 7.17516C17.2839 8.11683 17.7164 9.1585 17.7164 10.1168C17.7164 12.8502 14.2581 16.2002 9.99975 16.2002C9.24142 16.2002 8.50058 16.0918 7.80808 15.9002" stroke="#727272" stroke-width="1.5" stroke-linecap="round" stroke-linejoin="round"/>
        <path d="M8.13808 11.9725C7.64225 11.4817 7.36475 10.8125 7.36725 10.115C7.36392 8.66083 8.54058 7.47917 9.99558 7.47667C10.6956 7.475 11.3673 7.7525 11.8623 8.2475" stroke="#727272" stroke-width="1.5" stroke-linecap="round" stroke-linejoin="round"/>
        <path d="M12.5912 10.5826C12.3962 11.6592 11.5537 12.5034 10.4771 12.7009" stroke="#727272" stroke-width="1.5" stroke-linecap="round" stroke-linejoin="round"/>
        <path d="M16.5764 3.54158L3.43141 16.6866" stroke="#727272" stroke-width="1.5" stroke-linecap="round" stroke-linejoin="round"/>
    </symbol>

    <symbol id="login-svg" viewBox="0 0 20 20" fill="none" >
        <path d="M18.1601 10.1003H8.12598" stroke="white" stroke-width="1.5" stroke-linecap="round" stroke-linejoin="round"/>
        <path d="M15.7212 7.67041L18.1612 10.1004L15.7212 12.5304" stroke="white" stroke-width="1.5" stroke-linecap="round" stroke-linejoin="round"/>
        <path d="M13.634 6.35817C13.359 3.37484 12.2424 2.2915 7.8007 2.2915C1.8832 2.2915 1.8832 4.2165 1.8832 9.99984C1.8832 15.7832 1.8832 17.7082 7.8007 17.7082C12.2424 17.7082 13.359 16.6248 13.634 13.6415" stroke="white" stroke-width="1.5" stroke-linecap="round" stroke-linejoin="round"/>
    </symbol>

    <symbol id="shopping-single" viewBox="0 0 20 20" fill="none" xmlns="http://www.w3.org/2000/svg">
            <path d="M14.294 16.8745H8.24077C5.65655 16.8745 3.55412 14.7721 3.55412 12.1879V7.38404C3.55412 4.98174 2.35676 2.75812 0.351225 1.43578C-0.00894369 1.19832 -0.108379 0.71388 0.129078 0.353711C0.366535 -0.00649689 0.850939 -0.105971 1.21119 0.131564C2.35606 0.886427 3.28487 1.88203 3.94905 3.0283C4.09258 3.1891 5.24995 4.41583 7.14726 4.41583H16.142C18.596 4.36994 20.5168 6.83265 19.8752 9.20136L18.8397 13.3283C18.3159 15.4163 16.4466 16.8745 14.294 16.8745ZM4.91926 5.53676C5.04912 6.13669 5.11634 6.75528 5.11634 7.38404V12.1879C5.11634 13.9107 6.51796 15.3123 8.24077 15.3123H14.294C15.7291 15.3123 16.9752 14.3401 17.3245 12.9482L18.3599 8.8212C18.7412 7.41372 17.5997 5.95082 16.142 5.97804H7.14722C6.28913 5.97804 5.54224 5.79304 4.91926 5.53676ZM7.85021 19.0226C7.85021 18.4833 7.41307 18.0462 6.87383 18.0462C5.57828 18.0978 5.57942 19.9479 6.87383 19.9989C7.41307 19.9989 7.85021 19.5618 7.85021 19.0226ZM15.6222 19.0226C15.6222 18.4833 15.1851 18.0462 14.6459 18.0462C13.3503 18.0978 13.3514 19.9479 14.6459 19.9989C15.1851 19.9989 15.6222 19.5618 15.6222 19.0226ZM16.9231 8.32137C16.9231 7.88996 16.5734 7.54026 16.142 7.54026H7.45966C6.42329 7.5815 6.42407 9.06158 7.45966 9.10248H16.142C16.5734 9.10248 16.9231 8.75277 16.9231 8.32137Z" fill="#46A358"/>
    </symbol>

    <symbol id="heart" viewBox="0 0 20 20" fill="none" xmlns="http://www.w3.org/2000/svg">
        <path d="M10 18.8873C9.71527 18.8873 9.44077 18.7842 9.22684 18.5968C8.41888 17.8903 7.63992 17.2264 6.95267 16.6408L6.94916 16.6377C4.93423 14.9207 3.19427 13.4378 1.98364 11.9771C0.630341 10.3441 0 8.79578 0 7.10434C0 5.46097 0.563507 3.94485 1.58661 2.83508C2.62192 1.71219 4.04251 1.09375 5.58716 1.09375C6.74164 1.09375 7.79892 1.45874 8.72955 2.1785C9.19922 2.54181 9.62494 2.98645 10 3.5051C10.3752 2.98645 10.8008 2.54181 11.2706 2.1785C12.2012 1.45874 13.2585 1.09375 14.413 1.09375C15.9575 1.09375 17.3782 1.71219 18.4135 2.83508C19.4366 3.94485 20 5.46097 20 7.10434C20 8.79578 19.3698 10.3441 18.0165 11.9769C16.8059 13.4378 15.0661 14.9205 13.0515 16.6374C12.363 17.224 11.5828 17.8889 10.773 18.5971C10.5592 18.7842 10.2846 18.8873 10 18.8873ZM5.58716 2.26532C4.37363 2.26532 3.25882 2.74963 2.44781 3.62915C1.62476 4.52194 1.17142 5.75607 1.17142 7.10434C1.17142 8.52692 1.70013 9.79919 2.88559 11.2296C4.03137 12.6122 5.73563 14.0645 7.70889 15.7462L7.71255 15.7492C8.4024 16.3371 9.18442 17.0036 9.99832 17.7153C10.8171 17.0023 11.6003 16.3347 12.2916 15.7458C14.2647 14.0642 15.9688 12.6122 17.1146 11.2296C18.2999 9.79919 18.8286 8.52692 18.8286 7.10434C18.8286 5.75607 18.3752 4.52194 17.5522 3.62915C16.7413 2.74963 15.6264 2.26532 14.413 2.26532C13.524 2.26532 12.7078 2.54791 11.9872 3.10516C11.3449 3.60199 10.8975 4.23004 10.6352 4.66949C10.5003 4.89548 10.2629 5.03036 10 5.03036C9.73709 5.03036 9.49966 4.89548 9.36478 4.66949C9.10263 4.23004 8.65524 3.60199 8.01285 3.10516C7.29218 2.54791 6.47598 2.26532 5.58716 2.26532Z" fill="#3D3D3D"/>
    </symbol>

    <svg id="arrow-more" viewBox="0 0 16 16" fill="none">
        <path d="M2.66667 7.81714C2.66667 7.56401 2.85477 7.35481 3.09882 7.3217L3.16667 7.31714L13.1667 7.31714C13.4428 7.31714 13.6667 7.541 13.6667 7.81714C13.6667 8.07027 13.4786 8.27947 13.2345 8.31257L13.1667 8.31714H3.16667C2.89053 8.31714 2.66667 8.09328 2.66667 7.81714Z" fill="#3D3D3D"/>
        <path d="M8.78068 4.15517C8.585 3.96033 8.58431 3.64375 8.77915 3.44807C8.95628 3.27018 9.23402 3.25344 9.43008 3.39825L9.48626 3.44655L13.5196 7.46255C13.698 7.6402 13.7142 7.91895 13.5683 8.11499L13.5196 8.17114L9.48629 12.1878C9.29062 12.3827 8.97404 12.382 8.77918 12.1863C8.60204 12.0085 8.58648 11.7307 8.73212 11.5352L8.78065 11.4792L12.458 7.81666L8.78068 4.15517Z" fill="#3D3D3D"/>
    </svg>

</svg>